<svg width="117" height="20" fill="none" xmlns="http://www.w3.org/2000/svg"><path d="m12.89 19-1.71-4.758H4.629L2.953 19H0L6.41 1.797h3.047L15.867 19h-2.976Zm-2.449-7.172L8.836 7.164a35.353 35.353 0 0 1-.914-2.953c-.211.96-.52 2.012-.926 3.152L5.45 11.828h4.992ZM29.238 19h-2.765v-7.969c0-1-.203-1.746-.61-2.238-.398-.492-1.035-.738-1.91-.738-1.164 0-2.015.343-2.555 1.03-.539.688-.808 1.84-.808 3.458V19h-2.754V6.04h2.156l.387 1.698h.14c.391-.617.946-1.093 1.665-1.43.718-.335 1.515-.503 2.39-.503 3.11 0 4.664 1.582 4.664 4.746V19Zm12.54-3.691c0 1.265-.462 2.238-1.383 2.918-.922.671-2.243 1.007-3.961 1.007-1.727 0-3.114-.261-4.16-.785V16.07c1.523.703 2.94 1.055 4.253 1.055 1.696 0 2.543-.512 2.543-1.535 0-.328-.093-.602-.28-.82-.188-.22-.497-.446-.927-.68-.43-.235-1.027-.5-1.793-.797-1.492-.578-2.504-1.156-3.035-1.734-.523-.579-.785-1.329-.785-2.25 0-1.11.445-1.97 1.336-2.579.898-.617 2.117-.925 3.656-.925 1.524 0 2.965.308 4.324.925l-.89 2.075c-1.399-.578-2.574-.867-3.528-.867-1.453 0-2.18.414-2.18 1.242 0 .406.188.75.563 1.03.383.282 1.211.669 2.485 1.161 1.07.414 1.847.793 2.332 1.137.484.344.843.742 1.078 1.195.234.445.351.98.351 1.606Zm14.484-2.813c0 2.117-.543 3.77-1.63 4.957-1.085 1.188-2.597 1.781-4.534 1.781-1.211 0-2.282-.273-3.211-.82-.93-.547-1.645-1.332-2.145-2.355-.5-1.024-.75-2.211-.75-3.563 0-2.101.54-3.742 1.617-4.922 1.078-1.18 2.598-1.77 4.559-1.77 1.875 0 3.36.606 4.453 1.817 1.094 1.203 1.64 2.828 1.64 4.875Zm-9.434 0c0 2.992 1.106 4.488 3.316 4.488 2.188 0 3.282-1.496 3.282-4.488 0-2.96-1.102-4.441-3.305-4.441-1.156 0-1.996.383-2.52 1.148-.515.766-.773 1.863-.773 3.293Zm19.184-6.691c.554 0 1.011.039 1.37.117l-.269 2.566a5.205 5.205 0 0 0-1.219-.14c-1.101 0-1.996.359-2.683 1.078-.68.719-1.02 1.652-1.02 2.8V19h-2.754V6.04h2.157l.363 2.284h.14c.43-.773.989-1.386 1.676-1.84a4.025 4.025 0 0 1 2.239-.68ZM77.496 19 72.527 4.691h-.093c.132 2.125.199 4.118.199 5.977V19H70.09V1.867h3.95l4.757 13.63h.07l4.899-13.63h3.96V19h-2.695v-8.473c0-.851.02-1.96.059-3.328.047-1.367.086-2.195.117-2.484h-.094L79.97 19h-2.473Zm20.11.234c-2.016 0-3.594-.586-4.735-1.757-1.133-1.18-1.7-2.801-1.7-4.864 0-2.117.528-3.781 1.583-4.992 1.055-1.21 2.504-1.816 4.348-1.816 1.71 0 3.062.52 4.054 1.558.992 1.04 1.489 2.469 1.489 4.29v1.488h-8.637c.039 1.257.379 2.226 1.02 2.906.64.672 1.542 1.008 2.706 1.008.766 0 1.477-.07 2.133-.211a11.51 11.51 0 0 0 2.133-.727v2.238a8.468 8.468 0 0 1-2.04.68c-.687.133-1.472.2-2.354.2Zm-.504-11.343c-.875 0-1.579.277-2.11.832-.523.554-.836 1.363-.937 2.425h5.882c-.015-1.07-.273-1.878-.773-2.425-.5-.555-1.187-.832-2.062-.832Zm13.043 11.343c-1.618 0-2.879-.586-3.786-1.757-.906-1.172-1.359-2.817-1.359-4.934 0-2.125.457-3.777 1.371-4.957.922-1.188 2.195-1.781 3.82-1.781 1.704 0 3 .629 3.891 1.886h.141c-.133-.93-.2-1.664-.2-2.203V.766h2.766V19h-2.156l-.481-1.7h-.129c-.882 1.29-2.175 1.934-3.878 1.934Zm.738-2.226c1.133 0 1.957-.317 2.472-.95.516-.64.782-1.675.797-3.105v-.387c0-1.632-.265-2.793-.797-3.48-.531-.688-1.363-1.031-2.496-1.031-.968 0-1.714.394-2.238 1.183-.523.782-.785 1.899-.785 3.352 0 1.437.254 2.535.762 3.293.507.75 1.269 1.125 2.285 1.125Z" fill="#222"/></svg>